<svg width="136" height="23" viewBox="0 0 136 23" fill="none" xmlns="http://www.w3.org/2000/svg">
<path fill-rule="evenodd" clip-rule="evenodd" d="M36.5698 0.138672L25.0603 22.6387H14.2495L19.0663 13.3137H18.8501C14.8764 18.4722 8.94739 21.868 0.499512 22.6387V13.4428C0.499512 13.4428 5.90382 13.1235 9.08086 9.78336H0.499512V0.138849H10.144V8.07132L10.3605 8.07043L14.3016 0.138849H21.5955V8.02102L21.8119 8.02067L25.9009 0.138672H36.5698Z" fill="black"/>
<path d="M99.3325 20.1552H102.439V2.32617H99.3325V20.1552Z" fill="black"/>
<path fill-rule="evenodd" clip-rule="evenodd" d="M82.2087 19.9731C82.8837 20.2537 83.5702 20.3941 84.2681 20.3941C85.421 20.3941 86.4526 20.1135 87.3628 19.5521C88.2729 18.9909 88.9784 18.2172 89.4791 17.2311C89.9797 16.2375 90.2299 15.111 90.2299 13.8519C90.2299 12.5927 89.9721 11.4664 89.4563 10.4727C88.9405 9.47907 88.2237 8.70917 87.3058 8.16303C86.3881 7.60932 85.3451 7.33625 84.1769 7.34383C83.4337 7.34383 82.7207 7.48795 82.038 7.77619C81.3553 8.06443 80.7865 8.47403 80.3313 9.00499C80.2962 9.04542 80.2621 9.08624 80.229 9.12748V2.33762H77.1115V20.1552H80.2062L80.2 18.4907C80.28 18.5889 80.3656 18.6847 80.4565 18.7785C80.9494 19.2867 81.5336 19.6849 82.2087 19.9731ZM85.3944 17.0946C84.8862 17.4056 84.3059 17.5611 83.6536 17.5611C83.0088 17.5611 82.4172 17.4017 81.8787 17.0832C81.3401 16.757 80.9116 16.3134 80.5929 15.752C80.282 15.1907 80.1264 14.5535 80.1264 13.8405C80.1189 13.1275 80.2706 12.4904 80.5816 11.9291C80.9002 11.3602 81.3287 10.9202 81.8673 10.6093C82.4058 10.2907 83.0013 10.1352 83.6536 10.1428C84.3059 10.1352 84.8862 10.2869 85.3944 10.5979C85.9102 10.9013 86.3046 11.3374 86.5777 11.9063C86.8583 12.4676 86.9987 13.1124 86.9987 13.8405C86.9987 14.5687 86.8583 15.2135 86.5777 15.7747C86.3046 16.3361 85.9102 16.776 85.3944 17.0946Z" fill="black"/>
<path d="M41.0696 3.4071H44.6195L47.795 15.0041L51.1731 3.4071H54.1313L57.795 14.7713L60.8442 3.4071H64.0982L59.2968 20.1552H56.2362L52.5107 9.0532L49.091 20.1552H45.9962L41.0696 3.4071Z" fill="black"/>
<path fill-rule="evenodd" clip-rule="evenodd" d="M69.3408 20.4509C68.1043 20.4586 66.9893 20.1854 65.9957 19.6318C65.0095 19.0704 64.2322 18.2929 63.6632 17.2993C63.1019 16.3057 62.8213 15.1717 62.8213 13.8973C62.8213 12.6609 63.1095 11.5422 63.686 10.5409C64.2624 9.53969 65.0437 8.75841 66.0298 8.19711C67.0159 7.63581 68.1157 7.35516 69.3293 7.35516C70.6947 7.35516 71.8893 7.65856 72.9133 8.26538C73.9449 8.87219 74.7148 9.73311 75.223 10.8481C75.7388 11.9556 75.9247 13.2261 75.7805 14.6597H66.0347C66.0619 15.2308 66.2044 15.7504 66.4622 16.2184C66.7504 16.7342 67.1524 17.1362 67.6682 17.4244C68.184 17.7127 68.7604 17.8568 69.3977 17.8568C69.883 17.8492 70.3344 17.7658 70.7515 17.6066C71.1688 17.4397 71.5214 17.2159 71.8097 16.9352C72.1055 16.6546 72.3142 16.3361 72.4355 15.9796H75.6895C75.4923 16.8518 75.0979 17.6293 74.5063 18.3119C73.9145 18.9871 73.1713 19.5142 72.2762 19.8934C71.3812 20.2727 70.4027 20.4586 69.3408 20.4509ZM66.4735 11.5308C66.2918 11.8478 66.1658 12.1891 66.0957 12.5548H72.556C72.5092 12.0928 72.3665 11.6718 72.1283 11.2919C71.8552 10.8443 71.4835 10.4992 71.0133 10.2565C70.543 10.0062 70.012 9.88103 69.4204 9.88103C68.7908 9.88103 68.2182 10.0251 67.7023 10.3134C67.1865 10.6016 66.7769 11.0074 66.4735 11.5308Z" fill="black"/>
<path d="M92.5173 7.61688C92.5173 6.60046 92.7485 5.69783 93.2113 4.90896C93.6739 4.11253 94.3225 3.49433 95.1569 3.05439C95.9988 2.60686 96.9811 2.37551 98.1036 2.36035V5.12514C97.5803 5.13273 97.1328 5.24271 96.7611 5.4551C96.397 5.6599 96.1164 5.95951 95.9191 6.35394C95.7376 6.71706 95.6396 7.13804 95.6253 7.61688H98.0354V10.2451H95.6234V20.1552H92.5173V10.2451H90.5148V7.61688H92.5173Z" fill="black"/>
<path fill-rule="evenodd" clip-rule="evenodd" d="M110.334 20.4281C109.068 20.4281 107.934 20.1513 106.932 19.5976C105.939 19.0363 105.157 18.2626 104.589 17.2765C104.027 16.2829 103.747 15.1565 103.747 13.8973C103.747 12.6306 104.027 11.5004 104.589 10.5067C105.157 9.50549 105.939 8.72802 106.932 8.17431C107.934 7.62058 109.068 7.34372 110.334 7.34372C111.609 7.34372 112.746 7.62058 113.748 8.17431C114.756 8.72802 115.542 9.50171 116.103 10.4954C116.664 11.489 116.949 12.623 116.956 13.8973C116.949 15.1565 116.664 16.2829 116.103 17.2765C115.549 18.2626 114.768 19.0363 113.759 19.5976C112.75 20.1513 111.609 20.4281 110.334 20.4281ZM110.334 17.5724C111.002 17.5724 111.593 17.4206 112.109 17.1173C112.625 16.8063 113.023 16.3739 113.304 15.8201C113.585 15.2589 113.725 14.6179 113.725 13.8973C113.725 13.1691 113.585 12.5244 113.304 11.9631C113.023 11.4018 112.625 10.9694 112.109 10.666C111.593 10.355 111.002 10.1995 110.334 10.1995C109.674 10.1995 109.087 10.355 108.571 10.666C108.063 10.9694 107.668 11.4018 107.387 11.9631C107.107 12.5244 106.97 13.1691 106.978 13.8973C106.978 14.6179 107.118 15.2589 107.399 15.8201C107.687 16.3739 108.081 16.8063 108.582 17.1173C109.09 17.4206 109.674 17.5724 110.334 17.5724Z" fill="black"/>
<path d="M120.313 7.61685H116.854L120.597 20.1552H123.624L126.086 12.1469L128.743 20.1552H131.724L135.479 7.61685H132.351L130.221 15.4212L127.867 7.61685H124.841L122.499 15.5931L120.313 7.61685Z" fill="black"/>
</svg>
