<svg width="133" height="37" viewBox="0 0 133 37" fill="none" xmlns="http://www.w3.org/2000/svg">
<path fill-rule="evenodd" clip-rule="evenodd" d="M31.5532 9.01286L31.8043 9.4613C32.1205 10.0062 32.2876 10.625 32.2886 11.255V25.1564C32.2835 25.7859 32.1167 26.4036 31.8043 26.9502L31.5353 27.3986C31.228 27.9476 30.7748 28.4008 30.2259 28.7081L18.1899 35.6677C17.6449 35.9838 17.0263 36.1509 16.3962 36.152H15.8939C15.263 36.1579 14.6425 35.9904 14.1002 35.6677L2.04632 28.726C1.50907 28.4035 1.05939 27.9538 0.736899 27.4166L0.485775 26.9681C0.169622 26.4231 0.00258484 25.8045 0.00146484 25.1744V11.2729C0.00258484 10.6429 0.169622 10.0242 0.485775 9.47924L0.736899 9.0308C1.05126 8.48725 1.50277 8.03567 2.04632 7.72137L14.0822 0.761654C14.6273 0.445518 15.2459 0.278481 15.876 0.277344H16.3962C17.0263 0.278481 17.6449 0.445518 18.1899 0.761654L30.2259 7.70343C30.7725 8.01983 31.2294 8.47054 31.5532 9.01286ZM16.3962 3.86474H15.876L5.38269 9.92758L16.145 16.1338L26.9075 9.92758L16.3962 3.86474ZM28.4321 25.605L17.9388 31.6678V19.2551L28.7011 13.0309V25.1565L28.4321 25.605ZM79.0647 26.8248H75.3452V7.19421H79.0647V26.8248ZM45.5015 27.2456H49.6601V20.1166H51.4681L55.885 27.2456H60.3277L55.446 19.3934C57.6157 18.7477 59.2429 17.2753 59.2429 14.4857V14.3824C59.2429 10.5596 56.4792 8.77734 52.1139 8.77734H45.5015V27.2456ZM49.6601 17.2753V11.9803H52.0106C54.0253 11.9803 55.1619 12.626 55.1619 14.5115V14.6149C55.1619 16.3972 54.1028 17.2753 52.0106 17.2753H49.6601ZM67.082 27.1083C70.7757 27.1083 73.1003 25.481 73.5394 22.5622H70.0008C69.7683 23.6987 68.9159 24.4478 67.1854 24.4478C65.1448 24.4478 63.9308 23.1563 63.8275 20.9092H73.5653V19.876C73.5653 15.0457 70.4657 13.0052 66.9787 13.0052C63.0526 13.0052 60.0305 15.769 60.0305 20.0309V20.2375C60.0305 24.5512 63.0009 27.1083 67.082 27.1083ZM63.8791 18.6103C64.1632 16.6989 65.2998 15.5882 66.9787 15.5882C68.761 15.5882 69.7942 16.5697 69.9233 18.6103H63.8791ZM86.1999 27.1094C88.4215 27.1094 89.79 26.0762 90.4874 24.7072V26.8253H94.207V13.3163H90.4874V21.246C90.4874 23.235 89.2475 24.2165 87.6726 24.2165C86.0713 24.2165 85.3214 23.3382 85.3214 21.5043V13.3163H81.6024V22.0209C81.6024 25.5596 83.5653 27.1094 86.1999 27.1094ZM100.492 26.8241H96.7463V13.3152H100.492V15.3816C101.163 14.1159 102.61 13.0052 104.625 13.0052C106.407 13.0052 107.75 13.7543 108.396 15.3558C109.481 13.7284 111.237 13.0052 112.942 13.0052C115.448 13.0052 117.385 14.5809 117.385 18.1712V26.8241H113.665V18.5845C113.665 16.8538 112.89 16.0789 111.547 16.0789C110.1 16.0789 108.938 17.0089 108.938 18.8428V26.8241H105.219V18.5845C105.219 16.8538 104.418 16.0789 103.1 16.0789C101.654 16.0789 100.492 17.0089 100.492 18.8428V26.8241ZM126.033 27.1083C129.727 27.1083 132.052 25.481 132.49 22.5622H128.952C128.719 23.6987 127.867 24.4478 126.136 24.4478C124.096 24.4478 122.882 23.1563 122.779 20.9092H132.517V19.876C132.517 15.0457 129.417 13.0052 125.93 13.0052C122.004 13.0052 118.981 15.769 118.981 20.0309V20.2375C118.981 24.5512 121.952 27.1083 126.033 27.1083ZM122.83 18.6103C123.115 16.6989 124.251 15.5882 125.93 15.5882C127.712 15.5882 128.745 16.5697 128.875 18.6103H122.83Z" fill="black"/>
</svg>
