<svg width="21" height="15" viewBox="0 0 21 15" fill="none" xmlns="http://www.w3.org/2000/svg">
<path d="M20.5931 2.48035C20.4792 2.05775 20.2566 1.67236 19.9475 1.36252C19.6383 1.05268 19.2534 0.829212 18.8311 0.714351C17.2651 0.284351 11.0001 0.277351 11.0001 0.277351C11.0001 0.277351 4.73609 0.270351 3.16909 0.681351C2.74701 0.801498 2.36291 1.02813 2.05365 1.33949C1.7444 1.65084 1.52037 2.03647 1.40309 2.45935C0.990086 4.02535 0.986085 7.27335 0.986085 7.27335C0.986085 7.27335 0.982085 10.5374 1.39209 12.0874C1.62209 12.9444 2.29709 13.6214 3.15509 13.8524C4.73709 14.2824 10.9851 14.2894 10.9851 14.2894C10.9851 14.2894 17.2501 14.2964 18.8161 13.8864C19.2386 13.7717 19.6238 13.5487 19.9337 13.2395C20.2436 12.9303 20.4675 12.5456 20.5831 12.1234C20.9971 10.5584 21.0001 7.31135 21.0001 7.31135C21.0001 7.31135 21.0201 4.04635 20.5931 2.48035ZM8.99609 10.2824L9.00109 4.28235L14.2081 7.28735L8.99609 10.2824Z" fill="black"/>
</svg>
